<?xml version="1.0" encoding="utf-8"?>
<!-- Generator: Adobe Illustrator 22.1.0, SVG Export Plug-In . SVG Version: 6.00 Build 0)  -->
<svg version="1.1" id="header_logo_and_nav_on_scroll_down"
	 xmlns="http://www.w3.org/2000/svg" xmlns:xlink="http://www.w3.org/1999/xlink" x="0px" y="0px" viewBox="0 0 91.3 112.7"
	 style="enable-background:new 0 0 91.3 112.7;" xml:space="preserve">
<style type="text/css">
	.st0{fill:#FFFFFF;}
	.st1{fill:url(#SVGID_1_);}
	.st2{fill:url(#SVGID_2_);}
	.st3{fill:url(#SVGID_3_);}
</style>
<g>
	<g>
		<g>
			<path class="st0" d="M10.5,12.6l-0.3,0.2l-0.1,0.3C3.1,29.9,3.5,45.7,5,55.9c1.5,10.1,4.8,18.5,5.5,19h0.1h0.1
				c19.9,8.9,37.4,8.4,48.7,6.5c11.9-2.1,19.9-6.4,20.2-6.8l0.1-0.1v-0.1c12.8-31,0.2-61.2,0.1-61.4l-0.2-0.3l-0.3-0.1
				C40.4-3.8,11.7,11.9,10.5,12.6z"/>
			
				<radialGradient id="SVGID_1_" cx="77.9375" cy="97.839" r="88.4416" gradientTransform="matrix(1 0 0 -1 0 111.89)" gradientUnits="userSpaceOnUse">
				<stop  offset="0" style="stop-color:#F8AF00"/>
				<stop  offset="0.1636" style="stop-color:#F17806"/>
				<stop  offset="0.3304" style="stop-color:#EA470C"/>
				<stop  offset="0.4773" style="stop-color:#E62410"/>
				<stop  offset="0.5968" style="stop-color:#E30E12"/>
				<stop  offset="0.6742" style="stop-color:#E20613"/>
				<stop  offset="1" style="stop-color:#BF0D0D"/>
			</radialGradient>
			<path class="st1" d="M78.8,13.6c-38.9-16.4-67.8,0-67.8,0C-2.3,45.6,11,74,11,74c38,17,67.6,0,67.6,0
				C91.2,43.5,78.8,13.6,78.8,13.6z"/>
			<g>
				
					<radialGradient id="SVGID_2_" cx="72.1432" cy="91.4734" r="73.3909" gradientTransform="matrix(1 0 0 -1 0 111.89)" gradientUnits="userSpaceOnUse">
					<stop  offset="0" style="stop-color:#FAB900"/>
					<stop  offset="5.088279e-03" style="stop-color:#FAB700"/>
					<stop  offset="0.1824" style="stop-color:#F17907"/>
					<stop  offset="0.3441" style="stop-color:#EB470C"/>
					<stop  offset="0.4851" style="stop-color:#E62410"/>
					<stop  offset="0.5999" style="stop-color:#E30E12"/>
					<stop  offset="0.6742" style="stop-color:#E20613"/>
					<stop  offset="1" style="stop-color:#BF0D0D"/>
				</radialGradient>
				<path class="st2" d="M73.5,70.1c-2.5,1-29.9,12.1-58-0.6C15,68,11.4,57.4,11.4,43.4c0-7.6,1.1-16.3,4.3-25.1
					c1-0.5,7.1-3.4,16.5-4.9c9.5-1.5,24.3-1.8,41.4,5.1l0,0c0.3,0.9,4.2,11.8,4.2,26.3C77.9,52.6,76.8,61.3,73.5,70.1z"/>
				
					<radialGradient id="SVGID_3_" cx="15.013" cy="41.8433" r="79.8807" gradientTransform="matrix(1 0 0 -1 0 111.89)" gradientUnits="userSpaceOnUse">
					<stop  offset="0" style="stop-color:#F8AF00"/>
					<stop  offset="0.1636" style="stop-color:#F17806"/>
					<stop  offset="0.3304" style="stop-color:#EA470C"/>
					<stop  offset="0.4773" style="stop-color:#E62410"/>
					<stop  offset="0.5968" style="stop-color:#E30E12"/>
					<stop  offset="0.6742" style="stop-color:#E20613"/>
					<stop  offset="1" style="stop-color:#BF0D0D"/>
				</radialGradient>
				<path class="st3" d="M75.7,17.8l-0.3-0.9l-0.9-0.4c-17.6-7.2-32.9-6.8-42.6-5.3s-16,4.5-17.1,5.1L14,16.8l-0.3,0.8
					c-2.9,8-4.4,16.7-4.4,25.8c0,14.2,3.5,24.8,4.2,26.8l0.3,0.9l0.8,0.4c28.8,13,56.6,1.9,59.7,0.6l0.9-0.4l0.3-0.9
					c3-8,4.5-16.8,4.5-25.9C80,30,76.1,19,75.7,17.8z M73.5,70.1c-2.5,1-29.9,12.1-58-0.6C15,68,11.4,57.4,11.4,43.4
					c0-7.6,1.1-16.3,4.3-25.1c1-0.5,7.1-3.4,16.5-4.9c9.5-1.5,24.3-1.8,41.4,5.1l0,0c0.3,0.9,4.2,11.8,4.2,26.3
					C77.9,52.6,76.8,61.3,73.5,70.1z"/>
			</g>
			<g>
				<path class="st0" d="M27.1,28.4c-1.6-0.8-3-1.6-3-2.9c0-1.2,1.3-1.6,2.4-1.6c1.3,0,2.5,0.4,4,1.2l0.2,0.1l0.1-3.2h-0.1
					c-0.7-0.4-2.1-1-4.4-1c-3.5,0-5.9,2-5.9,5c0,1.3,0.4,2.4,1.2,3.2c0.9,1,2.2,1.7,3.3,2.3c1.6,0.8,3,1.6,3,2.9
					c0,1.4-1.5,1.9-2.7,1.9c-1.3,0-2.6-0.4-3.9-1.3l-0.1-0.1l-1.5,2.7l0.1,0.1c1.6,1.1,3.4,1.6,5.5,1.6c3.7,0,6.3-2.1,6.3-5.2
					C31.7,30.9,29.3,29.6,27.1,28.4z"/>
				<g>
					<path class="st0" d="M34.8,21.2c-1.1,0-1.9,0.8-1.9,1.9s0.8,1.9,1.9,1.9c1.1,0,2-0.9,2-1.9C36.7,22,35.9,21.2,34.8,21.2z"/>
					<rect x="33" y="26.1" class="st0" width="3.5" height="12.9"/>
				</g>
				<path class="st0" d="M53.3,25.8c-1.4,0-3.1,0.7-4.5,1.8c-0.7-1.2-1.8-1.8-3.3-1.8c-1.4,0-2.8,0.5-4.2,1.6
					c-0.1-0.3-0.3-1.3-0.3-1.3h-3V39h3.5c0,0,0-8.8,0-9c1-0.8,2-1.2,2.9-1.2c1.4,0,1.6,1,1.6,2.4V39h3.5v-8.6c0,0,0-0.2,0-0.4
					c1-0.8,2-1.2,2.9-1.2c1.4,0,1.7,0.9,1.7,2.4V39h3.5v-8.7C57.6,26.3,54.9,25.8,53.3,25.8z"/>
				<path class="st0" d="M70.3,32.4c0-4-2.3-6.7-5.8-6.7s-5.9,2.8-5.9,6.7c0,3.1,1.7,6.7,6.4,6.7c1.7,0,3.4-0.5,4.7-1.4l0.1-0.1
					L69,35.4l-0.2,0.1c-1.1,0.6-2.1,0.9-3.2,0.9c-1.8,0-3.2-1.2-3.4-2.8c0.3,0,8.1,0,8.1,0V32.4z M62.2,30.9
					c0.1-1.2,0.9-2.4,2.3-2.4c1.5,0,2.1,1.3,2.2,2.4H62.2z"/>
			</g>
			<g>
				<path class="st0" d="M19.7,42.2h-4.4V60h4.2c6.1,0,10.1-3.6,10.1-9.1C29.6,45.5,25.9,42.2,19.7,42.2z M19.6,57c0,0-0.6,0-0.9,0
					V45.2c0.2,0,0.8,0,0.8,0c3.9,0,6.2,2.1,6.2,5.8C25.8,52.8,25.2,57,19.6,57z"/>
				<path class="st0" d="M56.1,46.9c-0.9,0-1.7,0.2-2.3,0.3c0-0.4,0-6.3,0-6.3h-3.5v18.4h0.1c1.1,0.6,2.5,0.9,4.2,0.9
					c4.5,0,7.7-3,7.7-7.2S59.2,46.9,56.1,46.9z M55.2,57.4c-0.5,0-1-0.1-1.4-0.2v-7c0.4-0.2,0.9-0.4,1.6-0.4c2.2,0,3.3,1.8,3.3,3.5
					C58.8,55.7,57.2,57.4,55.2,57.4z"/>
				<path class="st0" d="M71.8,47.2c0,0-2.5,7.5-2.7,8c-0.2-0.5-3.7-8-3.7-8h-4.1c0,0,5.8,12.6,5.8,12.7c-0.8,2.5-1.8,3.7-3.1,3.7
					h-0.2v2.9H64c3,0,5-0.9,6.9-5.9l4.9-13.3L71.8,47.2L71.8,47.2z"/>
				<path class="st0" d="M48.4,46.9c-1.2,0-2.4,0.1-3.6,1.1c0-0.3-0.1-0.8-0.1-0.8h-3v12.9h3.5v-8.2c0-0.4,0.2-0.8,0.6-1.2
					c0.9-0.7,2.3-1.1,3.6-0.9h0.2v-2.9C49.6,46.9,48.5,46.9,48.4,46.9z"/>
				<path class="st0" d="M40.7,59.8c-0.2-0.5-0.2-1.4-0.2-3.3v-4c-0.1-3-0.8-5-4.4-5.6c-1.6-0.3-3.9,0.4-5.1,1.2l-0.1,0.1v0.1
					c0.2,0.7,0.3,1.4,0.3,2.3v0.2l0.2-0.1c1.4-0.6,2.5-0.9,3.5-0.9c1.2,0,1.8,0.6,1.9,2c-0.3,0-2,0.1-2,0.1
					c-3.4,0.1-5.4,1.7-5.4,4.3c0,2.5,1.8,4.2,4.3,4.2c1.4,0,2.6-0.4,3.6-1.3c0.1,0.3,0.5,1,0.5,1h3L40.7,59.8z M36.9,56.8
					c-0.6,0.5-1.3,0.7-2.1,0.7c-1.2,0-1.9-0.6-1.9-1.6c0-0.6,0.2-1.5,2.3-1.5c0,0,1.4,0,1.6,0v2.4H36.9z"/>
			</g>
		</g>
	</g>
	<g>
		<path d="M60.8,93.2c-0.9,0-1.7,0.1-2.6,0.8c0-0.2,0-0.6,0-0.6h-2.6v9.3h3v-5.8c0-0.3,0.2-0.6,0.5-0.9c0.6-0.5,1.7-0.7,2.6-0.6h0.1
			v-2.2C61.7,93.3,61.3,93.2,60.8,93.2z"/>
		<path d="M12.2,98.3h-0.3v4.4h-3v-13h3.8c2.9,0,4.9,1.4,4.9,4.2C17.5,95.5,16.2,98.3,12.2,98.3z M12.3,92.2h-0.4V96h0.4
			c1.5,0,2.2-0.7,2.2-1.9C14.5,93,13.8,92.2,12.3,92.2z"/>
		<path d="M24.2,96c-0.5-0.3-1-0.4-1.3-0.4c-0.6,0-1,0.1-1.6,0.6v6.4h-3v-9.3h2.5l0.3,0.9c0.7-0.7,1.5-1.2,2.5-1.2
			c0.5,0,1.1,0.1,1.5,0.5L24.2,96z"/>
		<path d="M33.1,101.4c-0.9,0.9-2.1,1.5-3.6,1.5c-1.4,0-2.6-0.4-3.4-1.2c-1-0.9-1.5-2.1-1.5-3.6c0-1.4,0.5-2.6,1.4-3.5
			s2.1-1.4,3.6-1.4c1.6,0,2.9,0.5,3.7,1.5c0.8,0.9,1.2,2,1.2,3.4C34.4,99.3,34,100.5,33.1,101.4z M29.4,95.4c-1.3,0-1.9,1.2-1.9,2.6
			c0,1.5,0.7,2.6,1.9,2.6c1.3,0,1.9-1.2,1.9-2.6C31.4,96.5,30.6,95.4,29.4,95.4z"/>
		<path d="M39.7,102.9c-0.3,0-0.7,0-1.2-0.2v4.6h-3V93.8c1.2-0.4,2.4-0.6,4-0.6c3.6,0,5.3,1.9,5.3,4.7
			C44.8,100.6,42.8,102.9,39.7,102.9z M39.2,95.5c-0.3,0-0.5,0-0.7,0.1v4.8c0.3,0.1,0.6,0.1,1,0.1c1.5,0,2.2-1.1,2.2-2.5
			C41.7,96.4,40.7,95.5,39.2,95.5z"/>
		<path d="M48.5,98.9c0.1,1.1,1.3,1.7,2.3,1.7c0.9,0,1.6-0.1,2.6-0.6l0.7,1.9c-1.3,0.8-2.6,1.1-3.7,1.1c-3.5,0-4.8-2.4-4.8-4.7
			c0-2.6,1.6-5,4.5-5c2.6,0,4.5,1.9,4.5,4.8c0,0.2,0,0.5,0,0.9h-6.1V98.9z M49.9,95.3c-1,0-1.5,0.9-1.5,1.6h3.1
			C51.4,96.1,51,95.3,49.9,95.3z"/>
		<path d="M77,102.7c-1.6,4.2-3.2,4.6-4.9,4.6c-1,0-1.8-0.2-2.5-0.5l0.7-2.2c0.6,0.3,1,0.4,1.6,0.4c0.8,0,1.6-0.5,2.3-2.4l-4.3-9.1
			H73l2.6,5.9l0,0l2-5.9h2.9L77,102.7z"/>
		<path d="M69.4,100c-0.4,0.2-0.9,0.4-1.5,0.4s-0.9-0.3-0.9-1v-3.9h2.1l0.5-2.1H67v-3l-3,0.8v2.2h-1.7v2.1H64v5.1
			c0,1.3,0.6,2.3,2.5,2.3c0.7,0,1.8-0.2,2.8-0.6L69.4,100L69.4,100z"/>
	</g>
</g>
</svg>
