<?xml version="1.0" encoding="utf-8"?>
<!-- Generator: Adobe Illustrator 22.1.0, SVG Export Plug-In . SVG Version: 6.00 Build 0)  -->
<svg version="1.1" id="Layer_1" xmlns="http://www.w3.org/2000/svg" xmlns:xlink="http://www.w3.org/1999/xlink" x="0px" y="0px"
	 viewBox="0 0 147.8 162.3" style="enable-background:new 0 0 147.8 162.3;" xml:space="preserve">
<style type="text/css">
	.st0{fill:#F04E23;}
	.st1{fill:#A70E13;}
	.st2{fill:#383838;}
</style>
<path id="Path_1" class="st0" d="M88,51.8c1.5-1,3.1-2.1,4.7-3.4c3.5-2.7,6.9-5.6,10.1-8.7L113,29.6l-10.2-10.1
	c-3.2-3.1-6.6-6-10.1-8.7C83.1,3.4,75,0,67.2,0C49.3,0,34.7,13.3,34.7,29.6c0.1,8.7,4.1,16.9,11,22.2c6.1-4.9,13.6-7.5,21.4-7.4
	C73.6,44.4,80.4,46.8,88,51.8 M50.9,29.6c0-8.1,7.3-14.8,16.2-14.8S91,29.6,91,29.6S76.1,44.4,67.2,44.4S50.9,37.8,50.9,29.6"/>
<path id="Path_2" class="st0" d="M92.7,55.2c-1.6-1.2-3.2-2.4-4.7-3.4c-7.6,5-14.4,7.4-20.9,7.4c-7.8,0.1-15.3-2.6-21.4-7.4
	c-6.8,5.3-10.9,13.5-11,22.2c0,16.3,14.5,29.6,32.4,29.6c7.8,0,15.9-3.4,25.6-10.8c3.5-2.7,6.9-5.6,10.1-8.7L113,74.1L102.8,64
	C99.7,60.8,96.3,57.9,92.7,55.2 M67.2,88.8c-8.9,0-16.2-6.6-16.2-14.8s7.3-14.7,16.2-14.7S91,74,91,74S76.1,88.8,67.2,88.8"/>
<path id="Path_3" class="st1" d="M88,51.8c-7.6-5-14.4-7.4-20.9-7.4c-7.8,0-15.3,2.6-21.4,7.4c6.1,4.9,13.6,7.5,21.4,7.4
	C73.6,59.3,80.4,56.9,88,51.8"/>
<path id="Path_4" class="st2" d="M0,162.3h16.4v-5H5.5v-5.5h10.1v-5H5.5v-5.5h10.9v-5H0V162.3z"/>
<path id="Path_5" class="st2" d="M30.1,136.3h-5.5v26h16.4v-5H30.1L30.1,136.3z"/>
<path id="Path_6" class="st2" d="M71.5,135.9c-2.4,0-4.7,0.9-6.5,2.5c-1.7-1.7-4.1-2.6-6.5-2.5c-5.1,0-9.2,3.5-9.2,7.9v18.4h5.5
	v-18.4c0-1.6,1.7-2.9,3.7-2.9s3.7,1.3,3.7,2.9v18.4h5.5v-18.4c0-1.6,1.7-2.9,3.7-2.9s3.7,1.3,3.7,2.9v18.4h5.5v-18.4
	C80.7,139.5,76.6,135.9,71.5,135.9"/>
<rect id="Rectangle_3" x="88.9" y="136.3" class="st2" width="5.5" height="26"/>
<path id="Path_7" class="st2" d="M111.9,135.9c-5.1,0-9.2,3.5-9.2,7.9v18.4h5.5v-18.4c0-1.6,1.7-2.9,3.7-2.9s3.7,1.3,3.7,2.9v18.4
	h5.5v-18.4C121.1,139.5,116.9,135.9,111.9,135.9"/>
<path id="Path_8" class="st2" d="M138.6,135.9c-5.1,0-9.3,3.5-9.3,7.9v18.4h5.5v-10.5h7.4v10.5h5.5v-18.4
	C147.8,139.5,143.6,135.9,138.6,135.9 M138.6,140.9c2,0,3.7,1.3,3.7,2.9v3h-7.4v-3C134.8,142.3,136.5,140.9,138.6,140.9"/>
<path id="Path_9" class="st2" d="M52.7,116.9c2,0,3.8,1.1,4.7,2.9l-1.9,0.9c-0.6-1.1-1.7-1.7-2.9-1.7c-1.4,0-2.8,0.7-2.8,2v4.8
	c0,1.4,1.4,2,2.8,2c1.2,0,2.3-0.6,2.9-1.7l1.9,0.9c-0.9,1.8-2.7,3-4.7,2.9c-2.4,0-4.9-1.4-4.9-4.1V121
	C47.8,118.3,50.2,116.9,52.7,116.9"/>
<path id="Path_10" class="st2" d="M60.1,117c0.7,0,1.2,0.5,1.3,1.2c0,0,0,0.1,0,0.1c0,0.7-0.5,1.2-1.2,1.3c0,0,0,0-0.1,0
	c-0.7,0-1.2-0.5-1.2-1.2c0,0,0,0,0,0C58.8,117.6,59.4,117,60.1,117C60.1,117,60.1,117,60.1,117 M59.2,129.7h2v-9.3h-2V129.7z"/>
<path id="Path_11" class="st2" d="M78.4,120.4v9.3c0,4.1-5.7,4.3-7.3,1.7l1.2-1.1c1.1,1.5,4.5,1.6,4.3-0.7c-2.3,1-5.6-0.2-5.6-2.9
	v-6.2h2v6.3c0.1,1.5,2.5,1.7,3.5,1v-7.2L78.4,120.4z"/>
<path id="Path_12" class="st2" d="M67.1,126.5v-4.1h1.8v-2h-1.8V117h-2v3.4h-1.8v2h1.8v4.2c0,2.7,1.8,3.6,4,3.2v-1.7
	C68.1,128.1,67.1,128,67.1,126.5"/>
<path id="Path_13" class="st2" d="M88.6,120.2c1.8,0,3.7,1.1,3.7,3.2v3.2c0,2.2-1.8,3.2-3.7,3.2c-1.8,0-3.7-1-3.7-3.2v-3.2
	C84.9,121.3,86.7,120.2,88.6,120.2 M86.9,123.4v3.2c0.2,0.9,1.1,1.5,2,1.4c0.7-0.1,1.2-0.7,1.4-1.4v-3.2c0-0.9-0.9-1.3-1.7-1.3
	C87.8,122.1,86.9,122.5,86.9,123.4"/>
<path id="Path_14" class="st2" d="M100,118.9V117c-2.2-0.1-3.9,1.1-3.9,3.2v1.7h-1.8v2h1.8v5.9h2v-5.9h1.8v-2h-1.8v-1.7
	C98.1,119.4,98.8,118.9,100,118.9"/>
</svg>
